<?xml version="1.0" encoding="UTF-8" standalone="no"?><!DOCTYPE svg PUBLIC "-//W3C//DTD SVG 1.1//EN" "http://www.w3.org/Graphics/SVG/1.1/DTD/svg11.dtd"><svg width="100%" height="100%" viewBox="0 0 30 8" version="1.1" xmlns="http://www.w3.org/2000/svg" xmlns:xlink="http://www.w3.org/1999/xlink" xml:space="preserve" xmlns:serif="http://www.serif.com/" style="fill-rule:evenodd;clip-rule:evenodd;stroke-linejoin:round;stroke-miterlimit:2;"><g><path d="M3.964,0c2.188,0 3.964,1.776 3.964,3.964c0,2.188 -1.776,3.964 -3.964,3.964c-2.188,0 -3.964,-1.776 -3.964,-3.964c0,-2.188 1.776,-3.964 3.964,-3.964Zm-0.178,5.715c-0.02,0.101 -0.076,0.194 -0.176,0.271l-0.65,0.475c-0.129,0.088 -0.287,0.094 -0.421,0.015l-1.011,-0.635c-0.123,-0.083 -0.199,-0.226 -0.203,-0.386l0,-2.976c0.004,-0.158 0.076,-0.298 0.2,-0.384l0.991,-0.638c0.07,-0.042 0.096,-0.067 0.236,-0.059c0.057,0.008 0.112,0.026 0.163,0.056l1.226,0.757c0.018,-0.111 0.078,-0.213 0.188,-0.293l0.672,-0.455c0.068,-0.043 0.093,-0.068 0.228,-0.066c0.065,0.006 0.126,0.025 0.183,0.059l0.989,0.627c0.123,0.083 0.198,0.223 0.202,0.385l0,2.963c-0.004,0.158 -0.076,0.296 -0.194,0.38l-0.989,0.66c-0.127,0.078 -0.277,0.081 -0.406,0.006l-1.228,-0.762Zm-2.059,-3.236l0,2.976l1.011,0.635l0.651,-0.474l-0.952,-0.642l0,-2.045l0.281,-0.204l2.332,1.499l0,-0.942l-2.332,-1.441c-0.33,0.213 -0.66,0.425 -0.991,0.638Zm2.813,-0.183l0.974,0.643l0,2.055l-0.271,0.18l-2.364,-1.439l0,0.908l2.333,1.447l0.989,-0.659l0,-2.963l-0.989,-0.627c-0.224,0.152 -0.448,0.304 -0.672,0.455Z" style="fill:#1b1b1b;"/><g><path d="M11.221,2.046l0,2.113l-1.441,-2.113l-0.64,0l0,3.892l0.854,0l0,-2.113l1.441,2.113l0.64,0l0,-3.892l-0.854,0Z" style="fill-rule:nonzero;"/><path d="M14.359,3.158l0,0.261c-0.176,-0.211 -0.437,-0.339 -0.795,-0.339c-0.699,0 -1.275,0.64 -1.275,1.468c0,0.828 0.576,1.468 1.275,1.468c0.358,0 0.619,-0.128 0.795,-0.339l0,0.261l0.801,0l0,-2.78l-0.801,0Zm-0.635,2.068c-0.368,0 -0.635,-0.261 -0.635,-0.678c0,-0.417 0.267,-0.678 0.635,-0.678c0.369,0 0.635,0.261 0.635,0.678c0,0.417 -0.266,0.678 -0.635,0.678Z" style="fill-rule:nonzero;"/><path d="M17.044,3.08c-0.352,0 -0.619,0.134 -0.763,0.339l0,-0.261l-0.801,0l0,2.78l0.801,0l0,-1.518c0,-0.395 0.203,-0.573 0.496,-0.573c0.256,0 0.464,0.162 0.464,0.506l0,1.585l0.801,0l0,-1.707c0,-0.751 -0.459,-1.151 -0.998,-1.151Z" style="fill-rule:nonzero;"/><path d="M19.606,6.016c0.523,0 0.977,-0.284 1.206,-0.718l-0.699,-0.417c-0.086,0.195 -0.283,0.312 -0.518,0.312c-0.347,0 -0.603,-0.261 -0.603,-0.645c0,-0.384 0.256,-0.645 0.603,-0.645c0.235,0 0.427,0.117 0.518,0.311l0.699,-0.422c-0.229,-0.428 -0.688,-0.712 -1.206,-0.712c-0.811,0 -1.415,0.64 -1.415,1.468c0,0.828 0.604,1.468 1.415,1.468Z" style="fill-rule:nonzero;"/><path d="M21.524,4.881l1.895,0c0.021,-0.105 0.032,-0.216 0.032,-0.333c0,-0.84 -0.577,-1.468 -1.356,-1.468c-0.843,0 -1.42,0.64 -1.42,1.468c0,0.828 0.566,1.468 1.479,1.468c0.507,0 0.902,-0.195 1.163,-0.573l-0.64,-0.384c-0.107,0.123 -0.294,0.212 -0.513,0.212c-0.293,0 -0.539,-0.1 -0.64,-0.39Zm-0.016,-0.622c0.075,-0.284 0.277,-0.439 0.582,-0.439c0.24,0 0.48,0.116 0.565,0.439l-1.147,0Z" style="fill-rule:nonzero;"/><path d="M25.98,3.92c0.203,-0.184 0.326,-0.44 0.326,-0.762c0,-0.673 -0.528,-1.112 -1.18,-1.112l-1.462,0l0,3.892l1.569,0c0.667,0 1.206,-0.451 1.206,-1.14c0,-0.395 -0.181,-0.695 -0.459,-0.878Zm-0.854,-1.04c0.198,0 0.326,0.145 0.326,0.345c0,0.2 -0.133,0.344 -0.326,0.344l-0.608,0l0,-0.689l0.608,0Zm0.107,2.224l-0.715,0l0,-0.745l0.715,0c0.214,0 0.352,0.156 0.352,0.372c0,0.217 -0.138,0.373 -0.352,0.373Z" style="fill-rule:nonzero;"/><path d="M26.973,2.913c0.262,0 0.48,-0.228 0.48,-0.5c0,-0.272 -0.218,-0.5 -0.48,-0.5c-0.261,0 -0.48,0.228 -0.48,0.5c0,0.272 0.219,0.5 0.48,0.5Zm-0.4,3.025l0.8,0l0,-2.78l-0.8,0l0,2.78Z" style="fill-rule:nonzero;"/><path d="M29.257,3.959l0,-0.801l-0.549,0l0,-0.778l-0.801,0.25l0,0.528l-0.427,0l0,0.801l0.427,0l0,0.984c0,0.778 0.304,1.106 1.35,0.995l0,-0.756c-0.352,0.022 -0.549,0 -0.549,-0.239l0,-0.984l0.549,0Z" style="fill-rule:nonzero;"/></g></g></svg>